<svg width="129" height="64" viewBox="0 0 129 64" fill="none" xmlns="http://www.w3.org/2000/svg">
<path d="M64.3308 15.0416C65.6742 15.0416 66.7642 15.5208 67.7067 16.0358C67.9942 16.1933 68.26 16.3483 68.5133 16.4958C69.13 16.8541 69.6717 17.1691 70.2683 17.37L70.2892 17.3775C70.6417 17.4958 70.9358 17.595 71.1592 17.6875C71.3708 17.775 71.625 17.8958 71.8042 18.1066C71.9633 18.2925 72.0433 18.4991 72.0967 18.695C72.145 18.875 72.1825 19.0925 72.2225 19.3283L72.2267 19.3533C73.2 25.0508 71.0817 30.4758 65.8392 32.5941L65.8108 32.6058C65.3 32.8125 64.9383 32.9583 64.3333 32.9583C63.7283 32.9583 63.3675 32.8125 62.8558 32.6058L62.8275 32.5941C57.585 30.4758 55.465 25.0508 56.4375 19.3533L56.4417 19.3283C56.4825 19.0933 56.5192 18.875 56.5683 18.6958C56.6208 18.4991 56.7008 18.2925 56.86 18.1066C57.0392 17.8958 57.2933 17.775 57.505 17.6875C57.7283 17.595 58.0225 17.4958 58.375 17.3775L58.3967 17.37C58.9925 17.1691 59.5333 16.8541 60.1492 16.4958C60.4025 16.3483 60.6683 16.1933 60.9558 16.0358C61.8983 15.5208 62.9875 15.0416 64.3308 15.0416ZM58.795 18.555C58.4158 18.6825 58.1625 18.7683 57.9833 18.8425C57.875 18.8866 57.825 18.9158 57.8067 18.9266C57.8 18.9416 57.7883 18.97 57.775 19.0216C57.7433 19.1366 57.7158 19.295 57.67 19.5633C56.765 24.8591 58.7492 29.5975 63.2958 31.435C63.8208 31.6475 63.9833 31.7083 64.3333 31.7083C64.6833 31.7083 64.8458 31.6475 65.3708 31.435C69.9175 29.5975 71.8992 24.8591 70.9942 19.5633C70.9483 19.295 70.9208 19.1366 70.89 19.0216C70.8758 18.97 70.8642 18.9408 70.8575 18.9266C70.8392 18.9158 70.7892 18.8866 70.6817 18.8425C70.5017 18.7683 70.2483 18.6825 69.8692 18.555C69.1433 18.3108 68.435 17.8983 67.7783 17.5158C67.5475 17.3816 67.3233 17.2516 67.1075 17.1333C66.2308 16.6541 65.3625 16.2916 64.3308 16.2916C63.2992 16.2916 62.4317 16.6541 61.5558 17.1333C61.3392 17.2508 61.115 17.3816 60.885 17.5158C60.2283 17.8983 59.5208 18.3108 58.795 18.555ZM65.8125 19.4658V22.4925H67.2358C67.7183 22.4925 68.06 22.8075 68.2033 23.1516C68.3458 23.4933 68.3258 23.935 68.0433 24.2833L64.7108 28.4008C64.3967 28.7883 63.9108 28.8758 63.515 28.7133C63.1275 28.555 62.8508 28.17 62.8508 27.7V24.6733H61.4267C60.945 24.6733 60.6025 24.3583 60.46 24.015C60.3175 23.6725 60.3375 23.2316 60.62 22.8825L63.9525 18.765C64.2658 18.3775 64.7517 18.29 65.1475 18.4525C65.535 18.6116 65.8125 18.9958 65.8125 19.4658ZM61.79 23.4233H63.0475C63.6775 23.4233 64.1008 23.9616 64.1008 24.5133V27.1675L66.8725 23.7425H65.615C64.9858 23.7425 64.5625 23.2041 64.5625 22.6525V19.9983L61.79 23.4233Z" fill="#00A2FF"/>
<path d="M55.2333 40.7273L57.2575 46.6506H57.3392L59.3633 40.7273H60.5494L57.9322 48H56.6644L54.0473 40.7273H55.2333ZM61.6996 48V40.7273H64.292C64.8578 40.7273 65.3265 40.8303 65.6982 41.0362C66.0699 41.2422 66.3481 41.5239 66.5327 41.8814C66.7174 42.2365 66.8097 42.6366 66.8097 43.0817C66.8097 43.5291 66.7162 43.9316 66.5292 44.2891C66.3445 44.6442 66.0652 44.9259 65.6911 45.1342C65.3194 45.3402 64.8519 45.4432 64.2884 45.4432H62.5057V44.5128H64.189C64.5465 44.5128 64.8365 44.4512 65.059 44.3281C65.2816 44.2027 65.4449 44.0322 65.5491 43.8168C65.6532 43.6013 65.7053 43.3563 65.7053 43.0817C65.7053 42.8071 65.6532 42.5632 65.5491 42.3501C65.4449 42.1371 65.2804 41.9702 65.0555 41.8494C64.8329 41.7287 64.5394 41.6683 64.1748 41.6683H62.7969V48H61.6996ZM74.0662 40.7273V48H73.0576L69.3609 42.6662H69.2934V48H68.1961V40.7273H69.2117L72.912 46.0682H72.9795V40.7273H74.0662Z" fill="#00A2FF"/>
</svg>
