<svg width="129" height="64" viewBox="0 0 129 64" fill="none" xmlns="http://www.w3.org/2000/svg">
<path d="M64.3308 15.0417C65.6742 15.0417 66.7642 15.5209 67.7067 16.0359C67.9942 16.1934 68.26 16.3484 68.5133 16.4959C69.13 16.8542 69.6717 17.1692 70.2683 17.3701L70.2892 17.3776C70.6417 17.4959 70.9358 17.5951 71.1592 17.6876C71.3708 17.7751 71.625 17.8959 71.8042 18.1067C71.9633 18.2926 72.0433 18.4992 72.0967 18.6951C72.145 18.8751 72.1825 19.0926 72.2225 19.3284L72.2267 19.3534C73.2 25.0509 71.0817 30.4759 65.8392 32.5942L65.8108 32.6059C65.3 32.8126 64.9383 32.9584 64.3333 32.9584C63.7283 32.9584 63.3675 32.8126 62.8558 32.6059L62.8275 32.5942C57.585 30.4759 55.465 25.0509 56.4375 19.3534L56.4417 19.3284C56.4825 19.0934 56.5192 18.8751 56.5683 18.6959C56.6208 18.4992 56.7008 18.2926 56.86 18.1067C57.0392 17.8959 57.2933 17.7751 57.505 17.6876C57.7283 17.5951 58.0225 17.4959 58.375 17.3776L58.3967 17.3701C58.9925 17.1692 59.5333 16.8542 60.1492 16.4959C60.4025 16.3484 60.6683 16.1934 60.9558 16.0359C61.8983 15.5209 62.9875 15.0417 64.3308 15.0417ZM58.795 18.5551C58.4158 18.6826 58.1625 18.7684 57.9833 18.8426C57.875 18.8867 57.825 18.9159 57.8067 18.9267C57.8 18.9417 57.7883 18.9701 57.775 19.0217C57.7433 19.1367 57.7158 19.2951 57.67 19.5634C56.765 24.8592 58.7492 29.5976 63.2958 31.4351C63.8208 31.6476 63.9833 31.7084 64.3333 31.7084C64.6833 31.7084 64.8458 31.6476 65.3708 31.4351C69.9175 29.5976 71.8992 24.8592 70.9942 19.5634C70.9483 19.2951 70.9208 19.1367 70.89 19.0217C70.8758 18.9701 70.8642 18.9409 70.8575 18.9267C70.8392 18.9159 70.7892 18.8867 70.6817 18.8426C70.5017 18.7684 70.2483 18.6826 69.8692 18.5551C69.1433 18.3109 68.435 17.8984 67.7783 17.5159C67.5475 17.3817 67.3233 17.2517 67.1075 17.1334C66.2308 16.6542 65.3625 16.2917 64.3308 16.2917C63.2992 16.2917 62.4317 16.6542 61.5558 17.1334C61.3392 17.2509 61.115 17.3817 60.885 17.5159C60.2283 17.8984 59.5208 18.3109 58.795 18.5551ZM65.8125 19.4659V22.4926H67.2358C67.7183 22.4926 68.06 22.8076 68.2033 23.1517C68.3458 23.4934 68.3258 23.9351 68.0433 24.2834L64.7108 28.4009C64.3967 28.7884 63.9108 28.8759 63.515 28.7134C63.1275 28.5551 62.8508 28.1701 62.8508 27.7001V24.6734H61.4267C60.945 24.6734 60.6025 24.3584 60.46 24.0151C60.3175 23.6726 60.3375 23.2317 60.62 22.8826L63.9525 18.7651C64.2658 18.3776 64.7517 18.2901 65.1475 18.4526C65.535 18.6117 65.8125 18.9959 65.8125 19.4659ZM61.79 23.4234H63.0475C63.6775 23.4234 64.1008 23.9617 64.1008 24.5134V27.1676L66.8725 23.7426H65.615C64.9858 23.7426 64.5625 23.2042 64.5625 22.6526V19.9984L61.79 23.4234Z" fill="#628499"/>
<path d="M55.2333 40.7273L57.2575 46.6506H57.3392L59.3633 40.7273H60.5494L57.9322 48H56.6644L54.0473 40.7273H55.2333ZM61.6996 48V40.7273H64.292C64.8578 40.7273 65.3265 40.8303 65.6982 41.0362C66.0699 41.2422 66.3481 41.5239 66.5327 41.8814C66.7174 42.2365 66.8097 42.6366 66.8097 43.0817C66.8097 43.5291 66.7162 43.9316 66.5292 44.2891C66.3445 44.6442 66.0652 44.9259 65.6911 45.1342C65.3194 45.3402 64.8519 45.4432 64.2884 45.4432H62.5057V44.5128H64.189C64.5465 44.5128 64.8365 44.4512 65.059 44.3281C65.2816 44.2027 65.4449 44.0322 65.5491 43.8168C65.6532 43.6013 65.7053 43.3563 65.7053 43.0817C65.7053 42.8071 65.6532 42.5632 65.5491 42.3501C65.4449 42.1371 65.2804 41.9702 65.0555 41.8494C64.8329 41.7287 64.5394 41.6683 64.1748 41.6683H62.7969V48H61.6996ZM74.0662 40.7273V48H73.0576L69.3609 42.6662H69.2934V48H68.1961V40.7273H69.2117L72.912 46.0682H72.9795V40.7273H74.0662Z" fill="#628499"/>
</svg>
